<svg width="100" height="100" viewBox="0 0 100 100" xmlns="http://www.w3.org/2000/svg">
  <defs>
    <style>
      .pixel {
        shape-rendering: pixelated;
      }
    </style>

    <g id="dino">
      <rect class="pixel" x="30" y="50" width="10" height="10" fill="green" />
      <rect class="pixel" x="40" y="40" width="10" height="20" fill="green" />
      <rect class="pixel" x="50" y="40" width="10" height="10" fill="green" />
      <rect class="pixel" x="60" y="40" width="10" height="10" fill="green" />
      <rect class="pixel" x="50" y="50" width="20" height="10" fill="green" />
      <rect class="pixel" x="30" y="60" width="10" height="10" fill="green" />
      <rect class="pixel" x="60" y="50" width="10" height="10" fill="green" />
      <rect class="pixel" x="30" y="70" width="10" height="10" fill="green" />
      <rect class="pixel" x="60" y="60" width="10" height="10" fill="green" />
      <rect class="pixel" x="55" y="35" width="5" height="5" fill="black" />
    </g>

    <g id="rocket">
      <rect class="pixel" x="45" y="60" width="10" height="20" fill="red" />
      <rect class="pixel" x="40" y="80" width="20" height="10" fill="orange" />
      <rect class="pixel" x="45" y="90" width="10" height="10" fill="yellow" />
    </g>

    <g id="flame">
      <rect class="pixel" x="45" y="95" width="10" height="5" fill="yellow" />
      <rect class="pixel" x="43" y="100" width="14" height="5" fill="orange" />
    </g>

    <g id="frame1">
      <use href="#dino" />
      <use href="#rocket" />
    </g>

    <g id="frame2">
      <use href="#dino" />
      <use href="#rocket" />
      <use href="#flame" />
    </g>

  </defs>

  <g id="animation">
    <g transform="translate(0, 0)">
      <use href="#frame1">
        <animate attributeName="opacity" values="1;0;0;1" dur="1s" repeatCount="indefinite" />
      </use>
      <use href="#frame2">
        <animate attributeName="opacity" values="0;1;1;0" dur="1s" repeatCount="indefinite" />
      </use>
    </g>
  </g>
</svg>
